<?xml version="1.0" encoding="UTF-8" standalone="no"?>
<svg width="42px" height="41px" viewBox="0 0 42 41" version="1.1" xmlns="http://www.w3.org/2000/svg" xmlns:xlink="http://www.w3.org/1999/xlink" xmlns:sketch="http://www.bohemiancoding.com/sketch/ns">
    <!-- Generator: Sketch 3.2.2 (9983) - http://www.bohemiancoding.com/sketch -->
    <title></title>
    <desc>Created with Sketch.</desc>
    <defs>
        <linearGradient x1="50%" y1="0%" x2="50%" y2="99.0254305%" id="linearGradient-1">
            <stop stop-color="#FFFFFF" offset="0%"></stop>
            <stop stop-color="#FFFFFF" offset="100%"></stop>
        </linearGradient>
    </defs>
    <g id="Page-1" stroke="none" stroke-width="1" fill="none" fill-rule="evenodd" sketch:type="MSPage">
        <g id="Landscape---Retina" sketch:type="MSArtboardGroup" transform="translate(-549.000000, -608.000000)" fill="url(#linearGradient-1)">
            <g id="Group-2" sketch:type="MSLayerGroup" transform="translate(442.000000, 608.000000)">
                <path d="M148.690202,20.5585029 C148.690202,9.20849607 139.408388,0 127.968013,0 C116.527637,0 107.245823,9.20849607 107.245823,20.5585029 C107.245823,29.6331545 113.181867,37.3425931 121.411383,40.0730192 C122.463681,40.2604014 122.84143,39.6179482 122.84143,39.0825705 C122.84143,38.6007306 122.814448,36.9678287 122.814448,35.2546201 C122.814448,35.2546201 117.040296,36.4859888 115.826105,32.8186517 C115.826105,32.8186517 114.881734,30.436221 113.532633,29.8205367 C113.532633,29.8205367 111.643892,28.5356303 113.667544,28.5623992 C113.667544,28.5623992 115.718177,28.7230125 116.851422,30.677141 C118.659217,33.8358693 121.681203,32.9257272 122.868412,32.3903496 C123.057286,31.0519054 123.596926,30.1685322 124.19053,29.6331545 C119.576605,29.1245457 114.746824,27.3577994 114.746824,19.4877475 C114.746824,17.2391613 115.556285,15.3921083 116.878404,13.9733574 C116.662548,13.4379797 115.961015,11.3500068 117.067278,8.51250509 C118.821109,7.97712741 122.787466,10.6272469 122.787466,10.6272469 C124.433369,10.1721759 126.214182,9.93125594 127.968013,9.93125594 C129.721844,9.93125594 131.502657,10.1721759 133.14856,10.6272469 C133.14856,10.6272469 137.114917,7.97712741 138.841766,8.51250509 C139.975011,11.3500068 139.273478,13.4379797 139.057622,13.9733574 C140.379741,15.3921083 141.189202,17.2391613 141.189202,19.4877475 C141.189202,27.3845683 136.332438,29.1245457 131.718513,29.6331545 C132.47401,30.2756077 133.121578,31.5069764 133.121578,33.434336 L133.121578,39.0825705 C133.121578,39.6179482 133.472344,40.2604014 134.524643,40.0730192 C142.754159,37.3425931 148.690202,29.6331545 148.690202,20.5585029 L148.690202,20.5585029 Z" id="" sketch:type="MSShapeGroup"></path>
            </g>
        </g>
    </g>
</svg>