<?xml version="1.0" encoding="UTF-8" standalone="no"?>
<svg width="41px" height="41px" viewBox="0 0 41 41" version="1.1" xmlns="http://www.w3.org/2000/svg" xmlns:xlink="http://www.w3.org/1999/xlink" xmlns:sketch="http://www.bohemiancoding.com/sketch/ns">
    <!-- Generator: Sketch 3.2.2 (9983) - http://www.bohemiancoding.com/sketch -->
    <title></title>
    <desc>Created with Sketch.</desc>
    <defs>
        <linearGradient x1="50%" y1="0%" x2="50%" y2="99.0254305%" id="linearGradient-1">
            <stop stop-color="#FFFFFF" offset="0%"></stop>
            <stop stop-color="#FFFFFF" offset="100%"></stop>
        </linearGradient>
    </defs>
    <g id="Page-1" stroke="none" stroke-width="1" fill="none" fill-rule="evenodd" sketch:type="MSPage">
        <g id="Landscape---Retina" sketch:type="MSArtboardGroup" transform="translate(-677.000000, -608.000000)" fill="url(#linearGradient-1)">
            <g id="Group-2" sketch:type="MSLayerGroup" transform="translate(442.000000, 608.000000)">
                <path d="M270.63594,34.3830566 C270.63594,35.2836914 269.93778,35.9989014 269.058616,35.9989014 L241.416663,35.9989014 C240.537499,35.9989014 239.839339,35.2836914 239.839339,34.3830566 L239.839339,17.2180176 L243.485284,17.2180176 C243.149133,18.3040771 242.968129,19.4960938 242.968129,20.6881104 C242.968129,27.4693604 248.501691,32.9526367 255.302284,32.9526367 C262.128734,32.9526367 267.662296,27.4693604 267.662296,20.6881104 C267.662296,19.4960938 267.481292,18.3040771 267.145141,17.2180176 L270.63594,17.2180176 L270.63594,34.3830566 Z M263.292334,20.2642822 C263.292334,24.6350098 259.723962,28.1845703 255.302284,28.1845703 C250.906463,28.1845703 247.338092,24.6350098 247.338092,20.2642822 C247.338092,15.8935547 250.906463,12.3439941 255.302284,12.3439941 C259.723962,12.3439941 263.292334,15.8935547 263.292334,20.2642822 L263.292334,20.2642822 Z M270.63594,10.7281494 C270.63594,11.7347412 269.834349,12.5559082 268.851754,12.5559082 L264.352502,12.5559082 C263.369907,12.5559082 262.568316,11.7347412 262.568316,10.7281494 L262.568316,6.35742188 C262.568316,5.35083008 263.369907,4.52966309 264.352502,4.52966309 L268.851754,4.52966309 C269.834349,4.52966309 270.63594,5.35083008 270.63594,6.35742188 L270.63594,10.7281494 Z M275.135191,5.21838379 C275.135191,2.35754395 272.83385,0 270.041211,0 L240.511641,0 C237.719002,0 235.417661,2.35754395 235.417661,5.21838379 L235.417661,35.4691162 C235.417661,38.3299561 237.719002,40.6875 240.511641,40.6875 L270.041211,40.6875 C272.83385,40.6875 275.135191,38.3299561 275.135191,35.4691162 L275.135191,5.21838379 Z" id="" sketch:type="MSShapeGroup"></path>
            </g>
        </g>
    </g>
</svg>