<?xml version="1.0" encoding="UTF-8" standalone="no"?>
<svg width="44px" height="41px" viewBox="0 0 44 41" version="1.1" xmlns="http://www.w3.org/2000/svg" xmlns:xlink="http://www.w3.org/1999/xlink" xmlns:sketch="http://www.bohemiancoding.com/sketch/ns">
    <!-- Generator: Sketch 3.2.2 (9983) - http://www.bohemiancoding.com/sketch -->
    <title></title>
    <desc>Created with Sketch.</desc>
    <defs>
        <linearGradient x1="50%" y1="0%" x2="50%" y2="99.0254305%" id="linearGradient-1">
            <stop stop-color="#FFFFFF" offset="0%"></stop>
            <stop stop-color="#FFFFFF" offset="100%"></stop>
        </linearGradient>
    </defs>
    <g id="Page-1" stroke="none" stroke-width="1" fill="none" fill-rule="evenodd" sketch:type="MSPage">
        <g id="Landscape---Retina" sketch:type="MSArtboardGroup" transform="translate(-804.000000, -608.000000)" fill="url(#linearGradient-1)">
            <g id="Group-2" sketch:type="MSLayerGroup" transform="translate(442.000000, 608.000000)">
                <path d="M372.090711,13.2206659 L362.815642,13.2206659 L362.815642,40.6875 L372.090711,40.6875 L372.090711,13.2206659 Z M372.680942,4.73948399 C372.652836,2.05100477 370.685397,0 367.509389,0 C364.361487,0 362.281623,2.05100477 362.281623,4.73948399 C362.281623,7.37253065 364.277168,9.47896798 367.396964,9.47896798 L367.453176,9.47896798 C370.685397,9.47896798 372.709048,7.37253065 372.680942,4.73948399 L372.680942,4.73948399 Z M405.452851,24.9446526 C405.452851,16.5189033 400.899636,12.5831914 394.800575,12.5831914 C389.79766,12.5831914 387.605371,15.3271032 386.396801,17.2118103 L386.453014,17.2118103 L386.453014,13.2206659 L377.206051,13.2206659 C377.206051,13.2206659 377.318476,15.79828 377.206051,40.6875 L386.453014,40.6875 L386.453014,25.3603968 C386.453014,24.5289084 386.537332,23.7251362 386.762183,23.1153781 C387.436733,21.4801175 388.954472,19.7894244 391.512142,19.7894244 C394.856788,19.7894244 396.205889,22.3116059 396.205889,25.9978713 L396.205889,40.6875 L405.452851,40.6875 L405.452851,24.9446526 Z" id="" sketch:type="MSShapeGroup"></path>
            </g>
        </g>
    </g>
</svg>